<svg width="1820" height="1131" viewBox="0 0 1820 1131" fill="none" xmlns="http://www.w3.org/2000/svg">
<path fill-rule="evenodd" clip-rule="evenodd" d="M68.1292 153.425L0 177.777V407V600V1131H1820V600V407V41.2591L1778.96 60.8943H1771.65C1764.33 60.8943 1759.46 65.7607 1759.46 65.7607L1735.09 88.3937H1693.66L1635.17 109.598L1601.05 114.464L1566.93 107.16C1566.93 107.16 1540.12 82.8079 1525.5 88.8933C1510.88 94.9788 1501.13 102.283 1501.13 102.283L1476.76 99.8451C1476.76 99.8451 1449.95 94.9788 1437.77 88.3837C1425.59 81.7887 1406.09 88.3837 1406.09 88.3837H1376.84L1347.6 60.8843L1306.17 68.1889C1306.17 68.1889 1286.67 87.6742 1252.55 88.3837C1232.02 88.8105 1222.96 80.5327 1217.41 75.4594C1213.73 72.0995 1211.59 70.145 1208.68 73.0552C1201.37 80.3597 1157.5 73.0552 1157.5 73.0552L1130.69 51.1416L1106.32 58.4462H1084.39C1084.39 58.4462 1062.45 51.1416 1040.52 51.1416C1027.95 51.1416 1008.98 50.3412 992.781 49.6575C980.707 49.1481 970.17 48.7035 964.969 48.7035C952.789 48.7035 940.6 41.3989 940.6 41.3989L928.41 31.6563C919.723 24.7138 909.803 27.6655 902.173 29.9357C899.096 30.8514 896.391 31.6563 894.29 31.6563C889.48 31.6563 882.556 34.8196 876.3 37.6777C873.05 39.1627 869.98 40.5653 867.48 41.3989C860.171 43.8371 845.551 34.0944 845.551 34.0944L818.741 0L789.491 12.1809L748.062 36.5326L745.622 43.8371C743.192 51.1516 713.942 56.018 713.942 56.018H689.572L662.763 68.1989L635.953 70.637L599.393 88.3937H572.584L550.654 70.637C550.654 70.637 523.844 92.5506 504.354 88.3937C484.865 84.2368 482.425 88.3937 482.425 88.3937L450.745 102.293H419.065L402.006 107.16L380.076 102.293H360.576L333.766 114.474H304.517L275.267 129.083H228.967L204.598 159.52L163.168 141.254L116.869 165.606L68.1292 153.425Z" fill="#231F20"/>
</svg>
